# xmcd
#
# Track frame offsets:
#	150
#	9823
#	20714
#	33954
#	44685
#	54375
#	61101
#	75719
#	88895
#	97284
#	108263
#
# Disc length: 1609 seconds
#
# Revision: 1
# Processed by: cddbd v1.5.2PL0 Copyright (c) Steve Scherf et al.
# Submitted via: audiograbber 1.83.01
#
DISCID=8606470b
DTITLE=Johnny Cash - The Johnny Cash Children's Album
DYEAR=1975
DGENRE=Country
TTITLE0=Nasty Dan
TTITLE1=One And One Makes Two
TTITLE2=I Got A Boy (And His Name Is John)
TTITLE3=Little Magic Glasses
TTITLE4=Miss Tara
TTITLE5=Dinosaur Song
TTITLE6=Tiger Whitehead
TTITLE7=Call Of The Wild
TTITLE8=Little Green Fountain
TTITLE9=Old Shep
TTITLE10=The Timber Man
EXTD=
EXTT0=
EXTT1=
EXTT2=
EXTT3=
EXTT4=
EXTT5=
EXTT6=
EXTT7=
EXTT8=
EXTT9=
EXTT10=
PLAYORDER=
